<svg width="100%" height="100%" viewBox="0 0 23 29" version="1.1" xmlns="http://www.w3.org/2000/svg" xmlns:xlink="http://www.w3.org/1999/xlink" xml:space="preserve" xmlns:serif="http://www.serif.com/" style="fill-rule:evenodd;clip-rule:evenodd;stroke-linejoin:round;stroke-miterlimit:1.41421;"><g><g id="Sides"><rect x="2" y="10" width="1" height="7" style="fill:#282725;"/><rect x="20" y="10" width="1" height="7" style="fill:#282725;"/></g><g id="Beard"><path id="Beard-Left" serif:id="Beard Left" d="M8,23l0,5l-1,0l0,-1l-1,0l0,-1l-1,0l0,-1l-1,0l0,-2l-1,0l0,-6l1,0l0,3l1,0l0,2l1,0l0,1l2,0Z" style="fill:#282725;"/><path id="Beard-Right" serif:id="Beard Right" d="M15,23l2,0l0,-1l1,0l0,-2l1,0l0,-3l1,0l0,6l-1,0l0,2l-1,0l0,1l-1,0l0,1l-1,0l0,1l-1,0l0,-5Z" style="fill:#282725;"/><g id="Smile"><path d="M8,24l1,0l0,1l5,0l0,-1l1,0l0,5l-7,0l0,-5Z" style="fill:#282725;"/><path d="M8,22l7,0l0,1l-1,0l0,1l-5,0l0,-1l-1,0l0,-1Z" style="fill:#282725;"/></g></g><path id="Nose" d="M12,17l0,4l-1,0l0,-0.01l-1,0l0,-1l1,0l0,-2.99l1,0Z" style="fill:#282725;"/><g id="Eyes"><g id="Normal"><path id="Eyes1" serif:id="Eyes" d="M15,15l1,0l0,2l-1,0l0,-2Zm-8,-0.01l1,0l0,2l-1,0l0,-2Z" style="fill:#282725;"/></g></g><path id="Glasses" d="M14,18l3,0l0,1l-3,0l0,-1Zm-1,-1l1,0l0,1l-1,0l0,-1Zm4,0l1,0l0,-3l4,0l0,1l-3,0l0,2l-1,0l0,1l-1,0l0,-1Zm-8,-0.01l1,0l0,1l-1,0l0,-1Zm0,-2.99l-4,0l0,3l1,0l0,0.99l3,0l0,1l-3,0l0,-0.99l-1,0l0,-1l-1,0l0,-2l-3,0l0,-1l3,0l0,-0.01l1,0l0,-0.99l5,0l0,0.99l3,0l0,-0.99l5,0l0,1l-5,0l0,2.99l-1,0l0,-2l-1,0l0,2l-1,0l0,-2.99l-1,0Z" style="fill:#282725;"/><g id="Ears"><rect x="0" y="15" width="1" height="3" style="fill:#282725;"/><rect x="1" y="18" width="1" height="1" style="fill:#282725;"/><rect x="2" y="19" width="1" height="1" style="fill:#282725;"/><rect x="22" y="15" width="1" height="3" style="fill:#282725;"/><rect x="21" y="18" width="1" height="1" style="fill:#282725;"/><rect x="20" y="19" width="1" height="1" style="fill:#282725;"/><rect x="1" y="14" width="1" height="1" style="fill:#282725;"/><rect x="21" y="14" width="1" height="1" style="fill:#282725;"/></g><g id="Eyebrows"><g id="Normal1" serif:id="Normal"><rect x="6" y="11" width="4" height="1" style="fill:#282725;"/><rect x="13" y="11" width="4" height="1" style="fill:#282725;"/></g></g><path id="Hat" d="M1,9l1,0l0,1l2,0l0,1l-3,0l0,-1l0,-1Zm20,0l1,0l0,2l-3,0l0,-1l2,0l0,-1Zm-5,0l3,0l0,1l-3,0l0,-1l-3,0l0,-1l3,0l0,1Zm-6,-2l3,0l0,1l-3,0l0,1l-3,0l0,1l-3,0l0,-1l3,0l0,-1l3,0l0,-1Zm-8,-1l1,0l0,-2l1,0l0,-1l1,0l0,-1l1,0l0,-1l2,0l0,-1l7,0l0,1l2,0l0,1l1,0l0,1l1,0l0,1l1,0l0,2l1,0l0,3l-1,0l0,-1l-3,0l0,-1l-3,0l0,-1l-5,0l0,1l-3,0l0,1l-2,0l-1,0l0,1l-1,0l0,-3Z" style="fill:#282725;"/></g></svg>